<svg width="18" height="18" viewBox="0 0 18 18" fill="none" xmlns="http://www.w3.org/2000/svg">
<path d="M17.2909 10.8773C16.9382 12.442 16.1496 13.8712 15.0104 15.0104C13.4049 16.6158 11.2704 17.5 8.99994 17.5C7.02372 17.5 5.15035 16.8301 3.63935 15.5977L3.77561 16.5621C3.81664 16.8526 3.61441 17.1213 3.32393 17.1624C3.03339 17.2034 2.76465 17.0012 2.72361 16.7107L2.40521 14.457C2.38552 14.3175 2.42201 14.1759 2.50674 14.0633C2.59144 13.9507 2.71741 13.8764 2.85692 13.8567L4.9609 13.5595C5.25142 13.5183 5.52018 13.7207 5.56122 14.0111C5.60226 14.3017 5.40003 14.5704 5.10955 14.6115L4.25909 14.7316C5.58991 15.8364 7.24869 16.4375 9.00001 16.4375C10.9866 16.4375 12.8544 15.6639 14.2591 14.2591C16.2681 12.2502 16.9549 9.32733 16.0515 6.63123C15.9583 6.35304 16.1082 6.05197 16.3864 5.95877C16.6646 5.86551 16.9657 6.01551 17.0589 6.29367C17.5537 7.77051 17.6339 9.35552 17.2909 10.8773ZM3.74081 3.74087C6.47363 1.00805 10.8214 0.850576 13.7404 3.26845L12.8904 3.38854C12.5999 3.42957 12.3977 3.69834 12.4388 3.98885C12.4798 4.27937 12.7485 4.4814 13.0391 4.44053L15.1431 4.14327C15.2826 4.12355 15.4085 4.04925 15.4932 3.93666C15.5779 3.82407 15.6145 3.68247 15.5948 3.54296L15.2764 1.2893C15.2353 0.998787 14.9664 0.796457 14.676 0.837627C14.3855 0.878664 14.1833 1.14746 14.2244 1.43794L14.3606 2.40222C12.8495 1.16991 10.9762 0.5 8.99997 0.5C6.72952 0.5 4.59499 1.38416 2.98956 2.98959C1.85031 4.1288 1.06174 5.55799 0.709076 7.12262C0.36607 8.64441 0.446285 10.2294 0.941055 11.7063C1.01549 11.9285 1.22257 12.0689 1.44469 12.0689C1.50063 12.0689 1.55754 12.06 1.61349 12.0413C1.89168 11.9481 2.04165 11.647 1.94846 11.3688C1.04521 8.67253 1.73198 5.74967 3.74081 3.74087ZM7.08026 13.6219L7.79887 10.5726L5.72577 10.4837C5.55597 10.4764 5.39989 10.3883 5.3059 10.2467C5.21191 10.1051 5.19135 9.92705 5.25059 9.76775L7.18567 4.56454C7.26307 4.35649 7.46161 4.21848 7.6836 4.21848H11.0446C11.2323 4.21848 11.406 4.31748 11.5017 4.47894C11.5973 4.6404 11.6007 4.84034 11.5105 5.00495L10.0296 7.70793L12.2659 7.76882C12.4706 7.7744 12.6538 7.89708 12.7369 8.08417C12.8201 8.27126 12.7883 8.48946 12.6553 8.64507C12.6553 8.64507 8.00373 14.0858 8.00107 14.0889C7.84403 14.2726 7.57227 14.3266 7.35699 14.2175C7.13839 14.1066 7.02402 13.8605 7.08026 13.6219ZM8.48601 9.53863C8.64419 9.5454 8.7911 9.62239 8.88672 9.74859C8.98231 9.87483 9.01664 10.0371 8.98032 10.1912L8.61679 11.7338L11.1245 8.80059L9.13152 8.74634C8.94649 8.74129 8.77742 8.64033 8.68529 8.4798C8.59312 8.3193 8.59116 8.12238 8.68008 7.96006L10.1479 5.28096H8.05283L6.50106 9.4535L8.48601 9.53863Z" fill="#89BB48" stroke="#89BB48" stroke-width="0.5"/>
</svg>
