<svg width="21" height="18" viewBox="0 0 21 18" fill="none" xmlns="http://www.w3.org/2000/svg">
<path d="M13.7727 12.3333V1.5H1.5V12.3333H13.7727ZM13.7727 12.3333H19.5V8.16667L17.0455 5.66667H13.7727V12.3333ZM7.22727 14.4167C7.22727 15.5673 6.31149 16.5 5.18182 16.5C4.05214 16.5 3.13636 15.5673 3.13636 14.4167C3.13636 13.2661 4.05214 12.3333 5.18182 12.3333C6.31149 12.3333 7.22727 13.2661 7.22727 14.4167ZM17.8636 14.4167C17.8636 15.5673 16.9479 16.5 15.8182 16.5C14.6885 16.5 13.7727 15.5673 13.7727 14.4167C13.7727 13.2661 14.6885 12.3333 15.8182 12.3333C16.9479 12.3333 17.8636 13.2661 17.8636 14.4167Z" stroke="#89BB48" stroke-width="2" stroke-linecap="round" stroke-linejoin="round"/>
</svg>
