<svg width="40" height="40" viewBox="0 0 40 40" fill="none" xmlns="http://www.w3.org/2000/svg">
<circle cx="20" cy="20" r="20" fill="url(#paint0_linear_39_1205)"/>
<path d="M19.5 8C12.6075 8 7 13.6075 7 20.5C7 27.3925 12.6075 33 19.5 33C21.3325 33 23.2013 32.5362 25.0525 31.62L23.9462 29.3787C22.4412 30.1225 20.945 30.5 19.5 30.5C13.9862 30.5 9.5 26.0138 9.5 20.5C9.5 14.9862 13.9862 10.5 19.5 10.5C25.0138 10.5 29.5 14.9862 29.5 20.5V21.75C29.5 22.615 29.1087 24.25 27.625 24.25C25.88 24.25 25.7575 21.9762 25.75 21.75V15.5H23.25V15.5312C22.1741 14.7049 20.8566 14.2548 19.5 14.25C16.0538 14.25 13.25 17.0538 13.25 20.5C13.25 23.9462 16.0538 26.75 19.5 26.75C21.3125 26.75 22.935 25.9612 24.0775 24.7237C24.7325 25.8362 25.8375 26.75 27.625 26.75C30.4662 26.75 32 24.1737 32 21.75V20.5C32 13.6075 26.3925 8 19.5 8ZM19.5 24.25C17.4325 24.25 15.75 22.5675 15.75 20.5C15.75 18.4325 17.4325 16.75 19.5 16.75C21.5675 16.75 23.25 18.4325 23.25 20.5C23.25 22.5675 21.5675 24.25 19.5 24.25Z" fill="white"/>
<defs>
<linearGradient id="paint0_linear_39_1205" x1="3.1385e-07" y1="38.7942" x2="42.8833" y2="36.9376" gradientUnits="userSpaceOnUse">
<stop stop-color="#1B804D"/>
<stop offset="1" stop-color="#89BB48"/>
</linearGradient>
</defs>
</svg>
