<svg width="50" height="45" viewBox="0 0 50 45" fill="none" xmlns="http://www.w3.org/2000/svg">
<path d="M40.0349 9.71223C39.82 9.44245 39.444 9.33453 39.068 9.4964L37.6712 10.036L33.3736 0.485612C33.2125 0.161871 32.9439 0 32.6215 0H18.6543C18.3857 0 18.1708 0.107914 18.0097 0.323741L10.1128 9.82014C9.95165 9.98202 9.89793 10.2518 9.95165 10.4676C10.0054 10.6835 10.1128 10.8993 10.274 11.0612L18.1708 16.9424C18.5469 17.2122 19.0841 17.1583 19.3527 16.7806L24.5098 9.76619L26.9809 14.1906L25.423 15C25.1007 15.1619 24.9396 15.4856 24.9933 15.8094C25.047 16.1331 25.2619 16.4568 25.6379 16.5108L34.448 18.6691C34.5017 18.6691 34.5555 18.6691 34.6629 18.6691C34.9315 18.6691 35.2001 18.5072 35.3613 18.2914L40.0886 10.6835C40.3035 10.3597 40.2498 9.98201 40.0349 9.71223ZM18.4931 15.054L11.993 10.1978L19.0841 1.67266H20.2122L23.704 8.20144L18.4931 15.054ZM34.1794 16.9424L28.2165 15.4856L28.5388 15.3237C28.7537 15.2158 28.9149 15.054 28.9686 14.8381C29.0223 14.6223 29.0223 14.4065 28.9149 14.1906L25.3693 7.82374L22.0387 1.61871H32.0306L36.4357 11.4388C36.5968 11.7626 36.9729 11.9784 37.2952 11.9245L34.1794 16.9424Z" fill="white"/>
<path d="M21.4478 31.5108L12.7451 31.1331L15.0013 26.6007L16.5055 27.464C16.8278 27.6259 17.2039 27.6259 17.4725 27.3561C17.7411 27.1403 17.8485 26.7626 17.6873 26.4389L14.5179 17.9137C14.4104 17.5899 14.0881 17.3741 13.7121 17.3741L4.7408 17.6978C4.36476 17.6978 4.09616 17.9676 3.98872 18.2914C3.88128 18.6151 4.04244 18.9928 4.31104 19.2086L5.5466 20.0719L0.12087 29.0288C-0.0402901 29.2986 -0.0402901 29.6763 0.12087 29.946L6.13752 38.8489L8.44749 42.3561C8.60865 42.5719 8.87725 42.7338 9.14585 42.7338H21.394C21.8775 42.7338 22.2536 42.3561 22.2536 41.8705V32.3741C22.2536 31.9424 21.8775 31.5647 21.4478 31.5108ZM7.42681 37.7698L1.83991 29.4604L7.48053 20.2878C7.69541 19.964 7.64169 19.5863 7.37309 19.3165L13.2286 19.0468L15.3774 24.8741L15.0551 24.7122C14.8402 24.6043 14.6253 24.5504 14.4104 24.6583C14.1955 24.7122 14.0344 24.8741 13.9269 25.0899L10.7037 31.5647L7.42681 37.7698ZM20.5345 41.0612H9.57561L8.50121 39.3885L11.9393 32.8058L20.5345 33.1835V41.0612Z" fill="white"/>
<path d="M49.9194 28.705L44.5474 17.5899C44.44 17.3741 44.2788 17.2122 44.0639 17.1583C43.849 17.1043 43.6342 17.1043 43.4193 17.2662L34.8241 22.0683C34.448 22.2842 34.2869 22.8237 34.5017 23.2014L38.6919 30.8094L33.6422 31.241L33.5885 29.5144C33.5885 29.1367 33.3199 28.8669 32.9976 28.759C32.6753 28.6511 32.2992 28.759 32.0843 29.0288L26.4974 36.205C26.2826 36.4748 26.2826 36.9065 26.4437 37.1763L31.4397 44.6223C31.6009 44.8381 31.8695 45 32.1381 45C32.1918 45 32.2992 45 32.3529 44.946C32.6753 44.8381 32.9439 44.5144 32.9439 44.1907L32.9976 42.6799H43.4193C43.7416 42.6799 44.0639 42.464 44.1714 42.1942L49.9194 29.4065C50.0269 29.1906 50.0269 28.9209 49.9194 28.705ZM42.9895 41.0612H32.2992C31.9232 41.0612 31.6009 41.3309 31.4934 41.6547L28.2165 36.7446L32.0306 31.8345V32.2122C32.0306 32.4281 32.1381 32.6439 32.2992 32.8058C32.4604 32.9676 32.6753 33.0216 32.9439 33.0216L40.1424 32.3741L47.126 31.8885L42.9895 41.0612ZM47.8243 30.1079L40.4647 30.6475L36.3282 23.0935L43.4193 19.1007L48.3078 29.0827L47.8243 30.1079Z" fill="white"/>
</svg>
