<svg width="50" height="41" viewBox="0 0 50 41" fill="none" xmlns="http://www.w3.org/2000/svg">
<path d="M20.6085 10.25C20.6085 15.9018 25.209 20.4999 30.8639 20.4999C36.5187 20.4999 41.1193 15.9018 41.1193 10.25C41.1193 4.59813 36.5187 0 30.8639 0C25.209 0 20.6085 4.59813 20.6085 10.25ZM30.8639 2.92856C34.903 2.92856 38.1892 6.21293 38.1892 10.25C38.1892 14.287 34.903 17.5713 30.8639 17.5713C26.8247 17.5713 23.5386 14.287 23.5386 10.25C23.5386 6.21293 26.8247 2.92856 30.8639 2.92856Z" fill="white"/>
<path d="M0 24.8927V36.607C0 37.4156 0.655955 38.0712 1.46506 38.0712H10.3531C11.1622 38.0712 11.8181 37.4156 11.8181 36.607V35.328C14.4354 35.6566 16.9576 36.4196 19.3347 37.6075C24.0871 39.9825 27.3214 41 30.1266 41C35.2818 41 39.0326 37.7549 42.5255 33.8833C44.0888 32.2807 48.6574 26.3947 49.6907 25.0685C50.168 24.4562 50.0842 23.578 49.4997 23.0669C48.0318 21.783 46.1534 21.1652 44.2088 21.3266C42.2725 21.4877 40.5276 22.4012 39.2929 23.8995L37.2237 26.2806C31.962 25.9104 29.3277 24.2601 26.9702 22.7834C25.0512 21.5813 23.2384 20.4459 20.5423 20.3322C17.8052 20.2173 14.5444 21.1736 10.0076 23.4285H1.46506C0.655955 23.4285 0 24.0841 0 24.8927ZM41.5185 25.8047C42.3122 24.8951 43.2196 24.3476 44.4519 24.2451C45.1243 24.1892 45.7833 24.2915 46.3881 24.5386C45.2652 25.9738 44.2231 27.2918 43.2442 28.4941C42.7616 27.6052 41.9657 26.8821 40.8695 26.5516L41.5185 25.8047ZM25.4143 25.265C28.274 27.0563 31.8332 29.2856 39.4924 29.2856C40.7663 29.2856 40.8653 30.369 40.8653 30.701C40.8653 31.5869 40.3128 32.2141 39.4004 32.2141C34.1815 32.2141 28.4137 30.4993 28.3566 30.4821C27.5819 30.249 26.7645 30.6874 26.5311 31.4617C26.2977 32.236 26.7365 33.0529 27.5111 33.2862C27.7298 33.352 32.2684 34.7041 37.1663 35.0583C35.0828 36.8349 32.8743 38.0714 30.1264 38.0714C27.8063 38.0714 24.9646 37.1467 20.6452 34.9881C17.8589 33.5957 14.8955 32.7203 11.8183 32.3777V25.8015C19.9559 21.846 22.0365 23.1493 25.4143 25.265ZM2.93011 26.357H8.88801V35.1427H2.93011V26.357Z" fill="white"/>
<path d="M29.828 14.2139C30.4709 14.8567 31.5325 14.7623 32.0561 14.0296L35.7188 8.90467C36.1891 8.24662 36.0366 7.33213 35.3782 6.862C34.72 6.39206 33.8049 6.54445 33.3344 7.2024L30.677 10.9208L28.9698 9.21451C28.3978 8.64266 27.4701 8.64266 26.898 9.21451C26.3258 9.78636 26.3258 10.7134 26.898 11.2853L29.828 14.2139Z" fill="white"/>
</svg>
