<svg width="62" height="39" viewBox="0 0 62 39" fill="none" xmlns="http://www.w3.org/2000/svg">
<path d="M1.17449 19.6785L6.11571 21.664C6.76864 21.9262 7.48055 21.7877 7.98975 21.3531L11.9028 23.8666L12.5739 24.3472C11.7226 25.7194 11.9407 27.5947 13.235 28.7125C13.9462 29.3268 14.8499 29.5889 15.7345 29.4907C15.7865 30.4378 16.2093 31.2813 16.8975 31.8755C17.5738 32.4596 18.4567 32.7587 19.3969 32.6542C19.4492 33.601 19.8718 34.4443 20.56 35.0385C21.2426 35.6281 22.1271 35.9209 23.0609 35.8172C23.1097 36.709 23.5024 37.5797 24.2224 38.2016C25.6133 39.403 27.7057 39.2288 28.885 37.8122L29.6702 36.8735L30.9934 37.8681C33.281 39.588 36.5145 38.179 36.8127 35.3201C39.1714 36.1931 41.6758 34.5094 41.7122 31.9237C43.9354 32.3495 45.9083 30.7047 46.0322 28.5231C48.916 29.3076 51.5245 26.3393 50.2511 23.4369L53.787 21.1237C54.2933 21.7346 55.1346 21.9653 55.8848 21.6639L60.826 19.6785C61.7771 19.2964 62.2458 18.1973 61.8706 17.2283L59.6122 11.3976C59.4281 10.9222 58.9005 10.6891 58.4341 10.8766C57.9674 11.064 57.7384 11.6013 57.9225 12.0765L60.1807 17.9072C60.1885 17.9271 60.1789 17.9496 60.1594 17.9575L55.2182 19.9429C55.1986 19.9507 55.1767 19.9411 55.1689 19.9212C54.9959 19.4745 49.4497 5.15469 48.9592 3.88848C48.9574 3.88404 48.9534 3.87368 48.9597 3.859C48.966 3.84433 48.9763 3.84026 48.9806 3.83841L53.9219 1.85288C53.9261 1.85103 53.9362 1.84696 53.951 1.85337C53.9652 1.85978 53.9692 1.87014 53.9711 1.87458L56.3652 8.05565C56.5494 8.531 57.0769 8.76412 57.5433 8.57664C58.01 8.38916 58.239 7.85189 58.0549 7.37666L55.6608 1.19572C55.2858 0.227007 54.2066 -0.250319 53.2555 0.131912L48.3141 2.11744C47.4312 2.47217 46.9651 3.43718 47.2019 4.35199L44.553 5.34784C43.7287 5.6578 42.8339 5.74771 41.9654 5.60747L39.2878 5.17517C38.7925 5.09537 38.327 5.43961 38.2487 5.94395C38.1702 6.44853 38.508 6.92253 39.0034 7.00245L41.681 7.43476C42.856 7.62433 44.0665 7.50284 45.1821 7.08336L47.855 6.07839C48.1451 6.82755 52.7236 18.6482 53.024 19.4239L49.1267 21.9735L49.0606 21.9238C49.0604 21.9235 49.0608 21.9239 49.0606 21.9238C48.6431 21.6099 41.8657 16.5156 41.5477 16.2764C41.353 16.13 41.1111 16.0642 40.8328 16.1124C37.0704 16.764 33.6996 15.4013 31.2197 12.7639C30.4481 11.9433 29.1892 11.8993 28.3533 12.6638C25.9475 14.8645 22.5856 17.0105 20.2334 14.7335C19.9997 14.5074 19.998 14.0898 20.3529 13.8565C23.3492 11.8933 26.4532 9.13673 28.9511 6.56286C29.5728 5.92211 30.467 5.62425 31.3445 5.76596L34.7919 6.3226C35.2883 6.40265 35.7526 6.05828 35.831 5.55382C35.9095 5.04923 35.5717 4.57524 35.0763 4.49532L31.6289 3.93868C30.1753 3.70409 28.6915 4.19893 27.6594 5.26237C27.3705 5.55999 27.0288 5.90559 26.6434 6.28461C25.4805 5.86464 24.2683 5.61376 23.0353 5.54321C19.4263 5.33674 19.1133 5.29777 18.2937 5.35142C17.6504 5.39323 16.9961 5.28186 16.4009 5.02827L14.8003 4.34607C15.0313 3.43656 14.566 2.47044 13.6866 2.11719L8.74537 0.131912C7.79394 -0.250442 6.715 0.226884 6.33985 1.19572L0.130064 17.2283C-0.24593 18.1993 0.220884 19.2954 1.17449 19.6785ZM16.5136 27.1249C15.9814 27.7643 15.0377 27.8436 14.4097 27.3014C13.7776 26.7555 13.706 25.7959 14.2353 25.1601L16.4817 22.4745C17.0013 21.85 17.9475 21.7471 18.5855 22.298C19.2147 22.8413 19.2925 23.7999 18.7587 24.4409C18.7585 24.4411 18.7589 24.4406 18.7587 24.4409L16.5136 27.1249ZM20.176 30.2881C19.6426 30.9288 18.7018 31.008 18.0722 30.4645C17.4401 29.9185 17.3684 28.959 17.8977 28.3231L20.1441 25.6375C20.702 24.9671 21.736 24.9085 22.3586 25.5669C22.3627 25.5712 22.3662 25.576 22.3703 25.5804C22.883 26.1358 22.9164 27.0091 22.4212 27.6041L20.176 30.2881ZM23.8384 33.451C23.3031 34.0942 22.3613 34.1686 21.7347 33.6274C21.1026 33.0816 21.0308 32.122 21.5601 31.4862L23.8066 28.8005C24.3402 28.1596 25.2874 28.0856 25.9105 28.6241C26.5382 29.1664 26.6158 30.1276 26.0836 30.767C26.0834 30.7673 26.0839 30.7668 26.0836 30.767L23.8384 33.451ZM29.7583 33.9138C29.7546 33.9185 29.7513 33.9237 29.7474 33.9282C29.3851 34.3614 28.3867 35.5549 27.5009 36.6139C26.9687 37.2535 26.025 37.3325 25.3972 36.7904C24.7693 36.2482 24.6917 35.2871 25.2225 34.6493L27.4691 31.9635C28.0043 31.3204 28.9469 31.2463 29.5728 31.7872C30.1887 32.3187 30.283 33.2675 29.7583 33.9138ZM14.1476 6.07382L15.6996 6.7353C16.5514 7.09829 17.4887 7.25826 18.4098 7.19794C19.1044 7.15243 19.3363 7.18475 22.9331 7.3906C23.6717 7.43291 24.4019 7.54934 25.115 7.7383C23.338 9.3728 21.3423 11.0111 19.3435 12.3185C18.0619 13.1565 17.872 15.0007 18.9821 16.0752C20.4993 17.5436 23.8922 19.2316 29.5669 14.0406C29.6686 13.9476 29.8183 13.9488 29.9075 14.0439C32.6563 16.9664 36.5526 18.5988 40.7603 17.9965C41.237 18.3378 40.3139 17.6488 47.9808 23.4121C48.8013 24.0288 49.0309 25.2417 48.3885 26.0788C47.7783 26.874 46.6758 27.0281 45.8791 26.429C44.8028 25.6199 45.5975 26.2357 41.8139 23.2663C41.4162 22.9544 40.8462 23.0298 40.54 23.4344C40.234 23.8391 40.3079 24.4199 40.705 24.7319L43.8441 27.1954C44.3849 27.9212 44.3205 28.9699 43.6803 29.6204C43.0509 30.2602 42.0148 30.3206 41.2702 29.7612C40.5503 29.2201 41.1484 29.6837 37.8466 27.0946C37.4492 26.7828 36.8789 26.8585 36.573 27.2633C36.267 27.6681 36.3411 28.2489 36.7385 28.5606L39.522 30.7433C40.0476 31.4359 40.0218 32.432 39.4478 33.0948C38.8303 33.808 37.7361 33.9072 36.9565 33.3211C35.7038 32.3796 36.3325 32.8658 33.9201 30.964C33.5234 30.6513 32.953 30.7253 32.6459 31.1294C32.3389 31.5334 32.4116 32.1144 32.8083 32.427L34.7379 33.9482C35.1769 34.6597 35.0909 35.5917 34.5137 36.2067C33.8836 36.878 32.8339 36.9524 32.0717 36.3795L30.8508 35.4618L31.1313 35.1265C31.6905 34.455 31.9792 33.5853 31.9053 32.6703C31.8302 31.7434 31.3978 30.938 30.7474 30.376C30.0709 29.7918 29.1872 29.4924 28.2473 29.5963C28.1979 28.7025 27.7955 27.8269 27.0849 27.213C26.4109 26.6309 25.5553 26.3512 24.6734 26.4246C24.6439 26.427 24.6145 26.4299 24.5853 26.4332C24.5836 26.4036 24.5827 26.374 24.5803 26.3443C24.5225 25.629 24.2488 24.9666 23.799 24.4321C23.7962 24.4288 23.7936 24.4255 23.7908 24.4221C23.0752 23.5789 22.0098 23.1529 20.924 23.2717C20.8729 22.3429 20.4594 21.4911 19.76 20.887C18.368 19.685 16.2759 19.8604 15.0973 21.2764L13.7286 22.9127L12.9285 22.3399C12.9162 22.331 12.9036 22.3224 12.8908 22.3143L8.86004 19.725C11.9074 11.8575 10.7659 14.8045 14.1476 6.07382ZM1.81968 17.9074L8.02934 1.87483C8.03528 1.85954 8.04957 1.85029 8.0647 1.85029C8.0693 1.85029 8.07403 1.85115 8.07863 1.853L13.0198 3.83853C13.0393 3.8463 13.0489 3.86887 13.0413 3.88861C12.7425 4.65997 7.02693 19.4168 6.83149 19.9213C6.8235 19.9414 6.80218 19.9509 6.78232 19.943L1.84111 17.9575C1.8215 17.9496 1.81181 17.9273 1.81968 17.9074Z" fill="white"/>
</svg>
