<svg width="50" height="46" viewBox="0 0 50 46" fill="none" xmlns="http://www.w3.org/2000/svg">
<path d="M48.9258 11.5633H46.4598C46.3929 9.13141 44.5229 7.12365 42.0901 6.73218C41.2922 3.94307 38.6125 1.92903 35.5339 1.92903C33.1074 1.92903 30.8875 3.16904 29.6758 5.14536C29.5842 5.13954 29.4925 5.1356 29.4009 5.13344C29.0119 3.73542 28.1636 2.47289 26.9878 1.55257C25.7088 0.551366 24.0944 0 22.442 0C19.5062 0 16.9268 1.6814 15.8142 4.20468C15.3487 4.0917 14.8687 4.03484 14.3781 4.03484C12.3118 4.03484 10.4154 5.09056 9.36689 6.74682C8.95127 6.62896 8.51777 6.56825 8.0793 6.56825C5.57539 6.56825 3.53828 8.52562 3.53828 10.9315C3.53828 11.1444 3.5541 11.3553 3.58545 11.5631H1.07422C0.480957 11.5631 0 12.0252 0 12.5953V16.8178C0 17.3878 0.480957 17.8499 1.07422 17.8499H2.02705L3.90889 43.1647C3.94902 43.7048 4.4168 44.1233 4.98037 44.1233H6.34756V44.9678C6.34756 45.5379 6.82852 46 7.42178 46C8.01504 46 8.496 45.5379 8.496 44.9678V44.1233H41.5039V44.9678C41.5039 45.5379 41.9849 46 42.5781 46C43.1714 46 43.6523 45.5379 43.6523 44.9678V44.1233H45.0195C45.5831 44.1233 46.0509 43.7048 46.091 43.1647L47.9729 17.8499H48.9258C49.519 17.8499 50 17.3878 50 16.8178V12.5953C50 12.0254 49.519 11.5633 48.9258 11.5633ZM30.0909 7.27228C30.5822 7.36058 31.072 7.11155 31.2725 6.67166C32.0137 5.04468 33.6864 3.99346 35.5339 3.99346C37.8411 3.99346 39.8206 5.64615 40.1382 7.83782C40.2121 8.3479 40.6661 8.72755 41.2021 8.72755L41.2247 8.72736C42.881 8.72905 44.2364 9.98867 44.3101 11.5633H19.7803C20.0505 10.1883 21.3101 9.14501 22.8185 9.14501C23.2703 9.14501 23.7056 9.2365 24.1123 9.41694C24.5813 9.62516 25.1385 9.48272 25.4381 9.07802C26.3103 7.89937 27.728 7.19581 29.2306 7.19581C29.5188 7.19572 29.8082 7.22152 30.0909 7.27228ZM5.68672 10.9317C5.68672 9.66401 6.76006 8.63278 8.0793 8.63278C8.51963 8.63278 8.94971 8.74847 9.32305 8.96729C9.59775 9.12831 9.9332 9.16256 10.2369 9.06056C10.5407 8.95857 10.781 8.73102 10.8914 8.44061C11.4243 7.04023 12.8255 6.09927 14.3781 6.09927C14.9514 6.09927 15.5009 6.22144 16.0113 6.46231C16.3041 6.60053 16.6462 6.60334 16.9413 6.4702C17.2364 6.33705 17.4527 6.08229 17.5292 5.7777C18.0775 3.59138 20.0978 2.06443 22.442 2.06443C24.6325 2.06443 26.5799 3.44848 27.2483 5.41654C26.0896 5.75706 25.0364 6.39147 24.2098 7.26009C23.7597 7.14082 23.2942 7.08077 22.8184 7.08077C20.1231 7.08077 17.8967 9.04602 17.6095 11.5634H5.77783C5.71729 11.3593 5.68672 11.1478 5.68672 10.9317ZM2.14844 13.6276H47.8516V15.7858H2.14844V13.6276ZM44.0193 42.0592H5.98066L4.18096 17.8501H45.8189L44.0193 42.0592Z" fill="white"/>
<path d="M19.1917 32.3353L20.221 30.6243C20.3745 31.0413 20.7856 31.3115 21.2327 31.3115C21.3247 31.3115 21.4183 31.3 21.5114 31.276C22.0845 31.1285 22.4246 30.5625 22.271 30.0119L21.623 27.6881C21.5492 27.4237 21.3691 27.1982 21.1225 27.0614C20.8758 26.9245 20.5825 26.8875 20.3073 26.9583L17.889 27.581C17.3159 27.7285 16.9758 28.2945 17.1294 28.8451C17.2753 29.3684 17.8145 29.6897 18.3596 29.5934L17.3348 31.2969C16.6914 32.34 16.6811 33.5937 17.3076 34.652C17.9343 35.7105 19.0628 36.3422 20.3275 36.3422H20.3301L20.9887 36.3414C21.5819 36.3408 22.0623 35.8781 22.0615 35.308C22.0608 34.7384 21.58 34.2771 20.9873 34.2771H20.9859L20.3279 34.2778H20.3269C19.6328 34.2778 19.2901 33.8258 19.175 33.6312C18.9344 33.2248 18.9379 32.7446 19.1845 32.3468C19.187 32.343 19.1894 32.3392 19.1917 32.3353Z" fill="white"/>
<path d="M32.6827 31.3101L32.3527 30.7624C32.0555 30.269 31.3983 30.1009 30.8849 30.3863C30.3715 30.6719 30.1962 31.3033 30.4935 31.7967L30.8231 32.3439C31.171 32.9219 30.9347 33.4334 30.8169 33.6265C30.574 34.0249 30.1476 34.2611 29.673 34.2611C29.6623 34.2611 29.6514 34.2608 29.6405 34.2609L27.5838 34.2598C27.9444 33.8543 27.9252 33.2438 27.526 32.8602C27.1064 32.4571 26.4263 32.4571 26.0067 32.8602L24.2364 34.5612C23.817 34.9643 23.817 35.6179 24.2364 36.0209L26.0067 37.722C26.2165 37.9236 26.4914 38.0243 26.7663 38.0243C27.0412 38.0243 27.3161 37.9236 27.5259 37.722C27.9246 37.3389 27.9443 36.7296 27.5853 36.3241L29.633 36.3251C29.6469 36.3252 29.6606 36.3253 29.6744 36.3253C30.9196 36.3253 32.0369 35.7091 32.6705 34.6701C33.3116 33.6188 33.3163 32.3628 32.6827 31.3101Z" fill="white"/>
<path d="M25.0076 23.9493C25.4942 23.9523 25.9252 24.1953 26.1605 24.5994C26.1628 24.6033 26.1651 24.6072 26.1674 24.611L27.1949 26.3231C26.649 26.2256 26.1084 26.547 25.9623 27.0711C25.8087 27.6217 26.1488 28.1876 26.7219 28.3352L29.1402 28.9578C29.2334 28.9818 29.3269 28.9932 29.4189 28.9932C29.8932 28.9932 30.3273 28.689 30.4559 28.2279L31.1038 25.9042C31.2574 25.3536 30.9173 24.7877 30.3442 24.6401C29.7997 24.4997 29.2407 24.7881 29.0548 25.2896L28.0318 23.5852C27.4134 22.5284 26.2886 21.893 25.0214 21.8852C25.0135 21.8852 25.0058 21.8851 24.9979 21.8851C23.7393 21.8851 22.6149 22.508 21.9867 23.555L21.6581 24.1035C21.3621 24.5975 21.539 25.2285 22.0531 25.513C22.5673 25.7973 23.224 25.6275 23.52 25.1334L23.8483 24.5854C24.1954 24.0069 24.7746 23.9487 25.0076 23.9493Z" fill="white"/>
</svg>
