<svg width="47" height="47" viewBox="0 0 47 47" fill="none" xmlns="http://www.w3.org/2000/svg">
<path d="M27.7109 21.6953C25.6762 23.7293 26.0813 27.2813 26.0989 27.4315C26.1201 27.6049 26.1988 27.7663 26.3224 27.8898C26.446 28.0133 26.6075 28.0918 26.7809 28.1128C27.0787 28.1445 27.378 28.1593 27.6774 28.1574C28.8973 28.1574 31.0837 27.9347 32.5167 26.5012C34.5515 24.4668 34.1456 20.9152 34.128 20.765C34.1069 20.5915 34.0283 20.4301 33.9046 20.3066C33.781 20.1831 33.6195 20.1046 33.4459 20.0837C33.2955 20.0645 29.744 19.6609 27.7109 21.6953ZM31.412 25.3967C30.3523 26.4561 28.5677 26.5862 27.6187 26.5934C27.6118 25.639 27.7559 23.8598 28.8157 22.8001C29.8755 21.7404 31.6653 21.6084 32.6083 21.6034C32.6149 22.557 32.4717 24.337 31.412 25.3967Z" fill="white"/>
<path d="M13.4297 20.0836C13.2562 20.1045 13.0947 20.183 12.971 20.3065C12.8473 20.43 12.7687 20.5914 12.7476 20.7649C12.73 20.9152 12.3241 24.4667 14.3589 26.5011C15.7917 27.9343 17.9783 28.1573 19.1982 28.1573C19.4976 28.1593 19.7969 28.1444 20.0947 28.1127C20.2682 28.0917 20.4296 28.0132 20.5533 27.8897C20.6769 27.7662 20.7556 27.6049 20.7768 27.4314C20.7943 27.2811 21.1995 23.7292 19.1647 21.6952C17.131 19.6605 13.5795 20.0653 13.4297 20.0836ZM15.4637 25.3961C14.4039 24.3364 14.2605 22.5568 14.2673 21.6028C15.2302 21.6106 17.0002 21.7405 18.0599 22.7995C19.1196 23.8584 19.2638 25.6384 19.257 26.5928C18.3052 26.5896 16.5226 26.4555 15.4637 25.3961Z" fill="white"/>
<path d="M46.3555 19.5859L41.9891 18.0336L40.3762 14.1406L42.366 9.95555C42.4352 9.80985 42.4576 9.6463 42.4302 9.48735C42.4027 9.3284 42.3267 9.18185 42.2127 9.06781L37.8075 4.66195C37.6934 4.54779 37.5468 4.47176 37.3878 4.44429C37.2288 4.41683 37.0651 4.4393 36.9194 4.50859L32.7339 6.49836L28.8414 4.88547L27.2891 0.519531C27.235 0.36747 27.1352 0.235883 27.0033 0.142855C26.8714 0.0498266 26.714 -7.76704e-05 26.5526 9.07378e-08H20.3224C20.1611 -2.92528e-05 20.0037 0.0498975 19.8718 0.142923C19.74 0.235948 19.6402 0.367508 19.5862 0.519531L18.0336 4.88547L14.1411 6.49836L9.95563 4.50859C9.80988 4.4393 9.64625 4.41683 9.48722 4.44429C9.32819 4.47176 9.18157 4.54779 9.0675 4.66195L4.66234 9.0675C4.54826 9.18154 4.47228 9.32809 4.44482 9.48704C4.41736 9.64598 4.43978 9.80953 4.50898 9.95523L6.49875 14.1406L4.88586 18.0336L0.519531 19.5859C0.367521 19.6401 0.235985 19.7399 0.142969 19.8718C0.0499534 20.0036 1.33157e-05 20.1611 0 20.3224V26.5526C6.16752e-05 26.7139 0.0500242 26.8713 0.143037 27.0031C0.236049 27.1349 0.367558 27.2347 0.519531 27.2888L4.88586 28.8414L6.49875 32.7344L4.50898 36.9198C4.43978 37.0655 4.41736 37.229 4.44482 37.388C4.47228 37.5469 4.54826 37.6935 4.66234 37.8075L9.0675 42.213C9.18157 42.3272 9.32819 42.4032 9.48722 42.4307C9.64625 42.4582 9.80988 42.4357 9.95563 42.3664L14.1411 40.3766L18.0336 41.9895L19.5859 46.3555C19.64 46.5075 19.7398 46.6391 19.8716 46.7321C20.0034 46.8251 20.1608 46.875 20.3222 46.875H26.5523C26.7137 46.875 26.8711 46.8251 27.0029 46.7321C27.1347 46.6391 27.2345 46.5075 27.2886 46.3555L28.8412 41.9895L32.7337 40.3766L36.9191 42.3664C37.0649 42.4357 37.2285 42.4582 37.3875 42.4307C37.5466 42.4032 37.6932 42.3272 37.8073 42.213L42.2124 37.8075C42.3265 37.6935 42.4025 37.5469 42.4299 37.388C42.4574 37.229 42.435 37.0655 42.3658 36.9198L40.3762 32.7344L41.9891 28.8411L46.3555 27.2891C46.5075 27.2349 46.639 27.1351 46.732 27.0032C46.825 26.8714 46.875 26.7139 46.875 26.5526V20.3224C46.875 20.1611 46.825 20.0036 46.732 19.8718C46.639 19.7399 46.5075 19.6401 46.3555 19.5859ZM45.3125 26.0013L41.1384 27.4853C41.0354 27.522 40.9413 27.58 40.8621 27.6553C40.7828 27.7307 40.7203 27.8218 40.6784 27.9228L38.8001 32.4573C38.7583 32.5583 38.7381 32.667 38.7408 32.7762C38.7436 32.8855 38.7692 32.993 38.8161 33.0917L40.718 37.0926L37.0926 40.7188L33.0917 38.8168C32.9928 38.7702 32.8853 38.7447 32.776 38.742C32.6667 38.7393 32.558 38.7595 32.457 38.8012L27.9228 40.6795C27.8217 40.7212 27.7306 40.7838 27.6552 40.863C27.5799 40.9423 27.522 41.0365 27.4853 41.1395L26.001 45.3125H20.8741L19.3897 41.1388C19.353 41.0358 19.2951 40.9416 19.2198 40.8623C19.1444 40.7831 19.0533 40.7205 18.9522 40.6788L14.418 38.8005C14.317 38.7588 14.2083 38.7386 14.099 38.7413C13.9897 38.744 13.8822 38.7695 13.7833 38.8161L9.78242 40.7188L6.15695 37.0926L8.05891 33.0917C8.10576 32.993 8.13139 32.8855 8.13415 32.7762C8.13691 32.667 8.11673 32.5583 8.07492 32.4573L6.19656 27.9228C6.15472 27.8218 6.09216 27.7307 6.01293 27.6553C5.9337 27.58 5.83955 27.522 5.73656 27.4853L1.5625 26.0013V20.8737L5.73656 19.3897C5.83955 19.353 5.9337 19.295 6.01293 19.2197C6.09216 19.1443 6.15472 19.0532 6.19656 18.9522L8.07492 14.4177C8.11673 14.3167 8.13691 14.208 8.13415 14.0988C8.13139 13.9895 8.10576 13.882 8.05891 13.7833L6.15695 9.78242L9.78242 6.15625L13.7833 8.0582C13.882 8.10524 13.9896 8.13097 14.099 8.13373C14.2083 8.13649 14.317 8.11621 14.418 8.07422L18.9522 6.19594C19.0533 6.15414 19.1444 6.0916 19.2198 6.01234C19.2951 5.93309 19.353 5.8389 19.3897 5.73586L20.8741 1.5625H26.001L27.4854 5.73617C27.5221 5.83921 27.5799 5.9334 27.6553 6.01266C27.7307 6.09191 27.8218 6.15446 27.9229 6.19625L32.457 8.07453C32.558 8.11654 32.6668 8.13682 32.7761 8.13406C32.8855 8.1313 32.993 8.10556 33.0918 8.05852L37.0926 6.15625L40.718 9.78211L38.8161 13.783C38.7692 13.8817 38.7436 13.9892 38.7408 14.0985C38.7381 14.2077 38.7583 14.3164 38.8001 14.4173L40.6784 18.9519C40.7203 19.0529 40.7828 19.144 40.8621 19.2194C40.9413 19.2947 41.0354 19.3526 41.1384 19.3894L45.3125 20.8737V26.0013Z" fill="white"/>
<path d="M23.4375 8.59375C20.3209 8.58978 17.2822 9.56815 14.7534 11.3898C12.2246 13.2115 10.3342 15.7839 9.35089 18.7413C8.36757 21.6988 8.34134 24.8909 9.27591 27.8641C10.2105 30.8374 12.0583 33.4404 14.5569 35.3034C14.5734 35.3199 14.5813 35.3416 14.5996 35.3569C14.6331 35.3788 14.6683 35.3979 14.7049 35.4141C17.2325 37.2744 20.2881 38.2789 23.4265 38.2812C26.5648 38.2836 29.6219 37.2838 32.1523 35.4274C32.1955 35.4079 32.2367 35.3844 32.2754 35.3571C32.2937 35.3415 32.3016 35.3202 32.3181 35.3037C34.8168 33.4407 36.6647 30.8376 37.5993 27.8644C38.534 24.8911 38.5078 21.6989 37.5244 18.7414C36.5411 15.7838 34.6507 13.2115 32.1218 11.3898C29.5929 9.56806 26.5542 8.58971 23.4375 8.59375ZM16.3039 34.622C18.2238 32.7969 20.7751 31.7849 23.4241 31.7977C23.4288 31.7977 23.4327 31.8005 23.4375 31.8005C23.4423 31.8005 23.4462 31.7978 23.4509 31.7977C26.0999 31.7849 28.6512 32.7969 30.5711 34.622C28.4437 35.9909 25.9673 36.7188 23.4375 36.7188C20.9077 36.7188 18.4313 35.9909 16.3039 34.622ZM23.4375 22.852C22.7578 22.1817 21.6011 20.8218 21.6011 19.3234C21.6011 17.8249 22.7578 16.4646 23.4375 15.7948C24.1172 16.4646 25.2739 17.8249 25.2739 19.3234C25.2739 20.8218 24.1172 22.1817 23.4375 22.852ZM31.8509 33.7046C29.8146 31.6627 27.0977 30.4423 24.2188 30.2764V24.2637C24.9647 23.5934 26.8364 21.6777 26.8364 19.3234C26.8364 16.4459 24.0387 14.2212 23.9189 14.128C23.7816 14.0202 23.6121 13.9615 23.4375 13.9615C23.2629 13.9615 23.0934 14.0202 22.9561 14.128C22.8363 14.2211 20.0386 16.4459 20.0386 19.3234C20.0386 21.6773 21.9103 23.5934 22.6562 24.2637V30.2764C19.7773 30.4423 17.0604 31.6627 15.0241 33.7046C12.9046 31.9693 11.3735 29.6211 10.6405 26.9817C9.90756 24.3423 10.0087 21.5409 10.93 18.9612C11.8513 16.3815 13.5477 14.1498 15.7868 12.5718C18.026 10.9938 20.6982 10.1468 23.4375 10.1468C26.1768 10.1468 28.849 10.9938 31.0882 12.5718C33.3273 14.1498 35.0237 16.3815 35.945 18.9612C36.8663 21.5409 36.9674 24.3423 36.2345 26.9817C35.5015 29.6211 33.9704 31.9693 31.8509 33.7046Z" fill="white"/>
</svg>
