<svg width="57" height="42" viewBox="0 0 57 42" fill="none" xmlns="http://www.w3.org/2000/svg">
<path d="M3.23831 34.9443V33.3361C3.23831 32.3875 4.35859 32.5277 4.35859 32.5277H8.6312M8.6312 32.5277C9.57875 30.6218 11.5269 29.314 13.7761 29.314C16.0253 29.314 17.9734 30.6218 18.9222 32.5277M8.6312 32.5277C8.23762 33.3186 8.01554 34.2122 8.01554 35.157C8.01554 35.4711 8.04021 35.779 8.0871 36.0793M19.4651 36.0793H39.4561M19.4651 36.0793C19.0296 38.8688 16.6484 41 13.7761 41C10.9038 41 8.52263 38.8688 8.0871 36.0793M19.4651 36.0793C19.512 35.779 19.5366 35.4711 19.5366 35.157C19.5366 34.2122 19.3146 33.3186 18.9222 32.5277M39.4561 36.0793C39.8917 38.8688 42.2729 41 45.1451 41C48.0174 41 50.3986 38.8688 50.8341 36.0793M39.4561 36.0793C39.4093 35.779 39.3846 35.4711 39.3846 35.157C39.3846 31.9295 41.9632 29.314 45.1451 29.314C48.3271 29.314 50.9057 31.9295 50.9057 35.157C50.9057 35.4711 50.881 35.779 50.8341 36.0793M50.8341 36.0793H54.1086C54.1086 36.0793 55.9988 36.0318 55.9988 33.4325V21.6526L48.5849 7.16838C48.5849 7.16838 47.6978 5.75174 46.0285 5.75174H36.326V32.5277M36.326 32.5277H18.9222M36.326 32.5277V36.0793M3.23831 34.6189C3.23831 34.6189 3.01006 36.0793 4.74107 36.0793H8.0871M49.931 9.79642H42.717C42.717 9.79642 41.6375 9.71633 41.6375 10.8914V18.3288C41.6375 18.3288 41.5042 19.176 42.622 19.176H54.7304M55.9988 23.5311H53.4226C53.4226 23.5311 52.5306 23.4672 52.5306 24.2344V26.4707C52.5306 26.4707 52.4146 27.3542 53.1919 27.3542H56M36.326 9.34465H3.22844C3.22844 9.34465 2.22167 9.15318 2.01193 10.5798C1.80219 12.0065 1.1088 16.5442 1.1088 16.5442C1.1088 16.5442 0.815156 17.4177 1.19269 18.4614C1.57023 19.5051 5.89713 32.5265 5.89713 32.5265M5.06802 9.33589L8.48685 4.12236C8.48685 4.12236 9.44673 2.66568 11.0321 2.66568C12.8594 2.66568 16.7865 5.75049 16.7865 5.75049M14.5633 4.18994C14.5633 4.18994 16.9593 1 20.8235 1C24.6877 1 26.8296 4.83443 26.8296 4.83443C26.8296 4.83443 28.0893 4.04602 29.7487 4.04602C31.4082 4.04602 33.4242 5.99452 33.4242 9.34465M13.7761 37.098C13.0482 37.098 12.4152 36.6863 12.0907 36.0793C11.9452 35.8052 11.8625 35.4911 11.8625 35.157C11.8625 34.0858 12.7187 33.216 13.7761 33.216C14.8334 33.216 15.6897 34.0858 15.6897 35.157C15.6897 35.4911 15.607 35.8052 15.4602 36.0793C15.137 36.6863 14.504 37.098 13.7761 37.098ZM47.0587 35.157C47.0587 36.229 46.202 37.098 45.1451 37.098C44.0883 37.098 43.2315 36.229 43.2315 35.157C43.2315 34.085 44.0883 33.216 45.1451 33.216C46.202 33.216 47.0587 34.085 47.0587 35.157Z" stroke="white" stroke-width="1.5" stroke-miterlimit="10" stroke-linecap="round"/>
</svg>
