<svg width="50" height="50" viewBox="0 0 50 50" fill="none" xmlns="http://www.w3.org/2000/svg">
<path d="M25 2.92969C31.9356 2.92969 38.4566 6.2417 42.578 11.7188H38.241V14.6484H46.7636V5.85938H43.8339V8.61348C38.9361 2.95635 32.0181 0 25 0C22.8925 0 20.7983 0.263965 18.7755 0.78457L19.5059 3.62178C21.2901 3.1626 23.1387 2.92969 25 2.92969Z" fill="white"/>
<path d="M50 25C50 22.8924 49.736 20.7981 49.2153 18.7755L46.3781 19.5059C46.8374 21.29 47.0703 23.1386 47.0703 25C47.0703 31.9354 43.7582 38.4565 38.2812 42.578V38.2296H35.3516V46.7569H44.1406V43.8272H41.3945C47.0018 38.9685 50 32.0731 50 25Z" fill="white"/>
<path d="M38.1836 17.6758H33.7891C30.5841 17.6758 27.7182 19.1542 25.8365 21.4645C24.3931 17.5473 20.623 14.7461 16.2109 14.7461H11.8164V16.2109C11.8164 21.8649 16.4163 26.4648 22.0703 26.4648H23.5474L23.5514 35.2539H20.6055V38.1836H29.3945V35.2539H26.4811L26.4784 29.3945H27.9297C33.5837 29.3945 38.1836 24.7946 38.1836 19.1406V17.6758ZM22.0703 23.5352C18.5333 23.5352 15.5739 21.0147 14.8933 17.6758H16.2109C19.7479 17.6758 22.7073 20.1962 23.388 23.5352H22.0703ZM27.9297 26.4648H26.612C27.2927 23.1259 30.2521 20.6055 33.7891 20.6055H35.1067C34.4261 23.9444 31.4667 26.4648 27.9297 26.4648Z" fill="white"/>
<path d="M25 47.0703C18.0642 47.0703 11.5434 43.7584 7.42197 38.2812H11.7647V35.3516H3.22666V44.1406H6.15635V41.3752C10.8906 46.85 17.724 50 25 50C27.1075 50 29.2017 49.736 31.2245 49.2154L30.4941 46.3782C28.7099 46.8374 26.8613 47.0703 25 47.0703Z" fill="white"/>
<path d="M2.92969 25C2.92969 18.0641 6.2416 11.5434 11.7188 7.42197V11.7647H14.6484V3.2252H5.85938V6.15488H8.62656C3.14971 10.8901 0 17.7248 0 25C0 27.1076 0.263965 29.2019 0.784668 31.2245L3.62188 30.4941C3.1626 28.71 2.92969 26.8614 2.92969 25Z" fill="white"/>
</svg>
