<svg width="40" height="40" viewBox="0 0 40 40" fill="none" xmlns="http://www.w3.org/2000/svg">
<circle cx="20" cy="20" r="20" fill="url(#paint0_linear_39_1209)"/>
<path d="M20 8C15.0373 8 11 12.1737 11 17.304C11 20.1736 12.4292 23.6567 15.2479 27.6564C17.3107 30.5835 19.3434 32.6711 19.4289 32.7586C19.5862 32.9194 19.793 33 20.0001 33C20.2012 33 20.4024 32.9239 20.5584 32.7713C20.6441 32.6875 22.6819 30.6844 24.7486 27.7977C27.5696 23.8572 29 20.3266 29 17.3039C28.9999 12.1737 24.9625 8 20 8ZM20.0109 31.0053C18.198 29.0078 12.6098 22.434 12.6098 17.304C12.6098 13.0752 15.925 9.63472 20 9.63472C24.0749 9.63472 27.3901 13.0751 27.3901 17.304C27.3901 22.7106 21.8318 29.068 20.0109 31.0053Z" fill="white"/>
<path d="M20 12.384C17.5738 12.384 15.6 14.3885 15.6 16.8523C15.6 19.3161 17.5738 21.3206 20 21.3206C22.4261 21.3206 24.3999 19.3161 24.3999 16.8523C24.3999 14.3885 22.426 12.384 20 12.384ZM20 19.6859C18.4614 19.6859 17.2097 18.4148 17.2097 16.8523C17.2097 15.2899 18.4614 14.0187 20 14.0187C21.5385 14.0187 22.7902 15.2899 22.7902 16.8523C22.7902 18.4148 21.5385 19.6859 20 19.6859Z" fill="white"/>
<path d="M20 8C15.0373 8 11 12.1737 11 17.304C11 20.1736 12.4292 23.6567 15.2479 27.6564C17.3107 30.5835 19.3434 32.6711 19.4289 32.7586C19.5862 32.9194 19.793 33 20.0001 33C20.2012 33 20.4024 32.9239 20.5584 32.7713C20.6441 32.6875 22.6819 30.6844 24.7486 27.7977C27.5696 23.8572 29 20.3266 29 17.3039C28.9999 12.1737 24.9625 8 20 8ZM20.0109 31.0053C18.198 29.0078 12.6098 22.434 12.6098 17.304C12.6098 13.0752 15.925 9.63472 20 9.63472C24.0749 9.63472 27.3901 13.0751 27.3901 17.304C27.3901 22.7106 21.8318 29.068 20.0109 31.0053Z" stroke="white"/>
<path d="M20 12.384C17.5738 12.384 15.6 14.3885 15.6 16.8523C15.6 19.3161 17.5738 21.3206 20 21.3206C22.4261 21.3206 24.3999 19.3161 24.3999 16.8523C24.3999 14.3885 22.426 12.384 20 12.384ZM20 19.6859C18.4614 19.6859 17.2097 18.4148 17.2097 16.8523C17.2097 15.2899 18.4614 14.0187 20 14.0187C21.5385 14.0187 22.7902 15.2899 22.7902 16.8523C22.7902 18.4148 21.5385 19.6859 20 19.6859Z" stroke="white"/>
<defs>
<linearGradient id="paint0_linear_39_1209" x1="3.1385e-07" y1="38.7942" x2="42.8833" y2="36.9376" gradientUnits="userSpaceOnUse">
<stop stop-color="#1B804D"/>
<stop offset="1" stop-color="#89BB48"/>
</linearGradient>
</defs>
</svg>
