<svg width="280" height="68" viewBox="0 0 280 68" fill="none" xmlns="http://www.w3.org/2000/svg">
<path d="M144.664 59.7595L143.501 62.7063H141.821L145.848 52.438H147.944L152.144 62.7063H150.347L149.144 59.7595H144.664ZM148.728 58.4686C147.694 55.8709 147.11 54.4461 146.859 53.6365H146.843C146.564 54.5353 145.914 56.247 145.082 58.4686H148.729H148.728Z" fill="white"/>
<path d="M153.674 57.1205C153.674 56.4719 153.674 55.7961 153.658 55.1793H155.209C155.233 55.3977 155.273 55.9252 155.271 56.287C155.66 55.6351 156.379 55.0024 157.682 55.0024C158.869 55.0024 159.653 55.5459 159.966 56.3109C160.421 55.616 161.197 55.0024 162.613 55.0024C164.028 55.0024 165.25 55.7403 165.25 57.7612V62.7065H163.667V57.9381C163.667 57.1014 163.333 56.2312 162.096 56.2312C160.86 56.2312 160.259 57.0886 160.259 58.3891V62.7081H158.678V57.9875C158.678 57.0567 158.391 56.2392 157.142 56.2392C155.892 56.2392 155.269 57.1285 155.269 58.5341V62.7081H153.673V57.1221L153.674 57.1205Z" fill="white"/>
<path d="M167.65 51.8628H169.262V56.1977C169.634 55.5857 170.386 55.0008 171.877 55.0008C174.01 55.0008 175.296 56.5818 175.296 58.7923C175.296 61.0028 174.03 62.8818 171.656 62.8818C170.336 62.8818 169.667 62.4594 169.248 61.7646C169.248 62.1232 169.216 62.5041 169.186 62.7049H167.635C167.651 61.8682 167.651 61.0251 167.651 60.19V51.8628H167.65ZM173.641 58.821C173.641 57.2687 172.877 56.2137 171.466 56.2137C169.779 56.2137 169.183 57.2289 169.183 58.9708C169.183 60.48 169.712 61.6769 171.404 61.6769C172.824 61.6769 173.64 60.5757 173.64 58.821H173.641Z" fill="white"/>
<path d="M178.314 51.8628H178.754V52.7824C178.754 53.1967 178.419 53.5314 178.005 53.5314H177.141V53.0342C177.141 52.3871 177.665 51.8628 178.312 51.8628H178.314Z" fill="white"/>
<path d="M178.755 55.1792H177.143V62.7063H178.755V55.1792Z" fill="white"/>
<path d="M182.204 59.2196C182.212 60.6364 183.004 61.6914 184.371 61.6914C185.623 61.6914 186.022 61.1288 186.28 60.5965H187.901C187.579 61.5528 186.678 62.8819 184.321 62.8819C181.668 62.8819 180.573 60.9727 180.573 59.0267C180.573 56.7652 181.843 55.001 184.414 55.001C187.144 55.001 188.046 56.9342 188.046 58.5916C188.046 58.8259 188.046 59.0124 188.022 59.218H182.202L182.204 59.2196ZM186.417 58.233C186.401 57.0648 185.767 56.1198 184.396 56.1198C183.026 56.1198 182.388 56.9963 182.253 58.233H186.417Z" fill="white"/>
<path d="M189.861 57.0759C189.861 56.4256 189.861 55.7579 189.845 55.1793H191.411C191.451 55.3961 191.475 56.1356 191.473 56.3619C191.797 55.7499 192.477 55.0024 194.064 55.0024C195.652 55.0024 196.853 55.8965 196.853 57.8759V62.7065H195.24V58.0544C195.24 56.9739 194.782 56.2376 193.555 56.2376C192.093 56.2376 191.472 57.2034 191.472 58.6807V62.7065H189.859V57.0759H189.861Z" fill="white"/>
<path d="M198.095 55.1791H199.51V52.9941H201.122V55.1791H202.928V56.3378H201.122V60.6121C201.122 61.3118 201.32 61.6576 202.062 61.6576C202.249 61.6576 202.534 61.6496 202.752 61.6034V62.6696C202.376 62.7939 201.855 62.8099 201.444 62.8099C200.08 62.8099 199.511 62.1692 199.511 60.9054V56.3378H198.096V55.1791H198.095Z" fill="white"/>
<path d="M210.803 61.0061C210.803 61.6962 210.868 62.4963 210.918 62.7066H209.375C209.31 62.5425 209.261 62.1775 209.243 61.7695C208.948 62.2556 208.301 62.8835 206.706 62.8835C204.727 62.8835 203.884 61.7201 203.884 60.5711C203.884 58.8849 205.361 58.1119 207.841 58.1119H209.222V57.5063C209.222 56.8672 208.991 56.1118 207.522 56.1118C206.207 56.1118 205.975 56.6872 205.831 57.2657H204.279C204.392 56.1708 205.144 54.9946 207.575 55.001C209.656 55.0074 210.805 55.7644 210.805 57.492V61.0045L210.803 61.0061ZM209.229 59.0841H207.955C206.341 59.0841 205.522 59.4921 205.522 60.4882C205.522 61.2245 206.075 61.7727 207.068 61.7727C208.975 61.7727 209.23 60.6093 209.23 59.3152V59.0825L209.229 59.0841Z" fill="white"/>
<path d="M213.208 62.7063V51.8643H214.821V62.7063H213.208Z" fill="white"/>
<path d="M76.6435 46.0346V21.2793H85.7491C87.459 21.2793 88.9139 21.4387 90.1154 21.7558C91.317 22.073 92.2954 22.5208 93.0555 23.0977C93.8141 23.6747 94.3654 24.3775 94.7112 25.2046C95.057 26.0318 95.2291 26.9545 95.2291 27.9745C95.2291 28.5291 95.1495 29.0646 94.9917 29.5794C94.8323 30.0958 94.5837 30.5787 94.2443 31.0329C93.9049 31.4855 93.4683 31.8967 92.936 32.2648C92.4038 32.633 91.7632 32.9533 91.0158 33.2242C92.6476 33.6211 93.8539 34.2633 94.6347 35.1526C95.4156 36.0419 95.8076 37.183 95.8076 38.5759C95.8076 39.6294 95.6036 40.6095 95.1957 41.5148C94.7877 42.4216 94.1901 43.2105 93.4029 43.8846C92.6157 44.5588 91.6452 45.0847 90.4899 45.464C89.3346 45.8433 88.0151 46.033 86.5315 46.033H76.6435V46.0346ZM82.3851 31.6959H85.3746C86.0088 31.6959 86.5809 31.6512 87.0909 31.5604C87.6008 31.4695 88.0342 31.3118 88.3896 31.0839C88.7466 30.8576 89.0191 30.5468 89.2055 30.1499C89.3919 29.7531 89.486 29.2559 89.486 28.655C89.486 28.0542 89.4127 27.5761 89.2645 27.1856C89.1163 26.7952 88.89 26.4812 88.5856 26.2421C88.2797 26.0047 87.8924 25.8341 87.4223 25.7322C86.9522 25.6302 86.3945 25.5792 85.7491 25.5792H82.3851V31.6959ZM82.3851 35.5351V41.7028H86.4279C87.1865 41.7028 87.8064 41.6072 88.2876 41.4144C88.7689 41.2215 89.1465 40.9729 89.4174 40.6669C89.6883 40.3609 89.8764 40.0151 89.9784 39.631C90.0804 39.2453 90.1314 38.8548 90.1314 38.458C90.1314 38.0054 90.0724 37.5974 89.9529 37.234C89.835 36.8723 89.631 36.5663 89.341 36.316C89.0525 36.0674 88.6701 35.8746 88.1936 35.7375C87.7171 35.6021 87.118 35.5335 86.3929 35.5335H82.3835L82.3851 35.5351Z" fill="white"/>
<path d="M114.868 21.2793V25.6971H104.709V31.4743H112.49V35.7216H104.709V41.6168H114.868V46.0346H98.9326V21.2793H114.868Z" fill="white"/>
<path d="M123.872 41.4478H133.046V46.0346H118.13V21.2793H123.873V41.4478H123.872Z" fill="white"/>
<path d="M141.506 41.4478H150.68V46.0346H135.764V21.2793H141.508V41.4478H141.506Z" fill="white"/>
<path d="M176.435 46.0347H171.984C171.485 46.0347 171.076 45.9183 170.752 45.6857C170.431 45.4546 170.206 45.1565 170.082 44.7932L168.62 40.4774H159.209L157.747 44.7932C157.634 45.1103 157.413 45.3956 157.085 45.6506C156.756 45.9056 156.353 46.0331 155.878 46.0331H151.394L160.976 21.2778H166.855L176.437 46.0331L176.435 46.0347ZM160.533 36.5712H167.294L165.019 29.7915C164.872 29.3612 164.699 28.8544 164.501 28.2711C164.302 27.6878 164.107 27.0567 163.914 26.3761C163.733 27.0678 163.546 27.7069 163.354 28.2966C163.161 28.8863 162.979 29.3946 162.81 29.825L160.533 36.5696V36.5712Z" fill="white"/>
<path d="M182.959 21.2793H187.58C188.079 21.2793 188.485 21.3925 188.804 21.6188C189.121 21.8451 189.348 22.1463 189.485 22.5192L194.275 35.7726C194.49 36.3511 194.708 36.979 194.928 37.658C195.15 38.3369 195.355 39.0509 195.548 39.7983C195.706 39.0509 195.891 38.3369 196.101 37.658C196.31 36.9774 196.517 36.3495 196.721 35.7726L201.478 22.5192C201.591 22.2021 201.812 21.9168 202.141 21.6618C202.469 21.4068 202.87 21.2793 203.347 21.2793H208.002L198.08 46.0346H192.882L182.961 21.2793H182.959Z" fill="white"/>
<path d="M216.325 46.0346H210.548V21.2793H216.325V46.0346Z" fill="white"/>
<path d="M234.708 26.3093C234.538 26.5818 234.359 26.7858 234.173 26.9213C233.986 27.0567 233.746 27.1253 233.451 27.1253C233.189 27.1253 232.909 27.044 232.609 26.8782C232.31 26.7141 231.969 26.5308 231.589 26.3268C231.21 26.1228 230.777 25.9395 230.289 25.7754C229.802 25.6112 229.247 25.5284 228.624 25.5284C227.548 25.5284 226.747 25.7578 226.219 26.2168C225.692 26.6758 225.429 27.2958 225.429 28.0767C225.429 28.5755 225.587 28.9883 225.904 29.3166C226.221 29.6449 226.637 29.9286 227.153 30.1661C227.668 30.4035 228.257 30.6219 228.92 30.8195C229.583 31.0171 230.259 31.2387 230.95 31.4825C231.64 31.7263 232.318 32.0116 232.981 32.3399C233.644 32.6682 234.232 33.0874 234.748 33.5974C235.263 34.1073 235.68 34.7273 235.997 35.4572C236.314 36.1887 236.474 37.0685 236.474 38.0996C236.474 39.2439 236.275 40.3149 235.879 41.311C235.483 42.307 234.907 43.1772 234.155 43.9183C233.401 44.661 232.472 45.2443 231.368 45.6682C230.264 46.0937 229.01 46.3057 227.604 46.3057C226.834 46.3057 226.05 46.226 225.25 46.0682C224.452 45.9104 223.679 45.6857 222.932 45.3973C222.184 45.1088 221.482 44.7661 220.825 44.3693C220.168 43.9725 219.596 43.531 219.109 43.0433L220.807 40.3579C220.932 40.1539 221.107 39.9898 221.335 39.8655C221.561 39.7411 221.805 39.679 222.065 39.679C222.404 39.679 222.747 39.7874 223.093 40.0009C223.438 40.2161 223.829 40.4535 224.266 40.7149C224.702 40.9747 225.203 41.2137 225.77 41.4289C226.336 41.644 227.005 41.7508 227.775 41.7508C228.817 41.7508 229.626 41.5213 230.203 41.0623C230.782 40.6034 231.07 39.8766 231.07 38.8789C231.07 38.3004 230.912 37.8319 230.594 37.4685C230.276 37.1067 229.86 36.8055 229.346 36.5681C228.829 36.3306 228.245 36.1202 227.586 35.9401C226.93 35.7584 226.256 35.5576 225.564 35.3377C224.873 35.1162 224.199 34.8452 223.542 34.5217C222.885 34.1982 222.299 33.7743 221.784 33.2467C221.268 32.7192 220.852 32.0626 220.535 31.2753C220.218 30.488 220.059 29.5174 220.059 28.362C220.059 27.4328 220.245 26.5276 220.619 25.6431C220.994 24.7602 221.542 23.9729 222.267 23.2812C222.992 22.5911 223.881 22.0381 224.935 21.6253C225.988 21.2126 227.194 21.0054 228.554 21.0054C229.312 21.0054 230.052 21.0643 230.77 21.1839C231.489 21.3018 232.173 21.4787 232.818 21.7114C233.463 21.9441 234.067 22.2214 234.627 22.5433C235.188 22.8652 235.688 23.2318 236.131 23.6382L234.705 26.3061L234.708 26.3093Z" fill="white"/>
<path d="M257.303 21.2793V25.8326H250.338V46.0346H244.596V25.8326H237.631V21.2793H257.305H257.303Z" fill="white"/>
<path d="M280 46.0347H275.549C275.05 46.0347 274.641 45.9183 274.317 45.6857C273.996 45.4546 273.771 45.1565 273.647 44.7932L272.185 40.4774H262.774L261.312 44.7932C261.199 45.1103 260.978 45.3956 260.65 45.6506C260.321 45.9056 259.918 46.0331 259.443 46.0331H254.959L264.541 21.2778H270.42L280.002 46.0331L280 46.0347ZM264.098 36.5712H270.859L268.584 29.7915C268.437 29.3612 268.263 28.8544 268.066 28.2711C267.867 27.6878 267.672 27.0567 267.479 26.3761C267.298 27.0678 267.111 27.7069 266.919 28.2966C266.726 28.8863 266.544 29.3946 266.375 29.825L264.098 36.5696V36.5712Z" fill="white"/>
<path d="M8.60359 0.078125C3.85959 0.078125 0 3.93812 0 8.68262C0 13.4271 3.85959 17.2871 8.60359 17.2871C13.3476 17.2871 17.2072 13.4271 17.2072 8.68262C17.2072 3.93812 13.346 0.078125 8.60359 0.078125ZM8.60359 12.6813C6.39812 12.6813 4.60537 10.8883 4.60537 8.68262C4.60537 6.47691 6.39812 4.68398 8.60359 4.68398C10.8091 4.68398 12.6018 6.47851 12.6018 8.68262C12.6018 10.8867 10.8075 12.6813 8.60359 12.6813Z" fill="white"/>
<path d="M67.0057 37.6932C65.8982 22.639 52.7402 11.2837 37.6971 12.3977C37.2828 12.428 36.8716 12.4694 36.4637 12.5172C36.3266 12.5332 36.1928 12.5555 36.0573 12.5746C35.788 12.6113 35.5187 12.6463 35.251 12.691C35.0853 12.718 34.9211 12.7515 34.7554 12.7818C34.5211 12.8248 34.2885 12.8663 34.0558 12.9157C33.8773 12.9523 33.7021 12.9954 33.5268 13.0368C33.3132 13.0862 33.0981 13.1356 32.8862 13.1898C32.6997 13.2376 32.5149 13.2902 32.33 13.3412C32.1324 13.397 31.9364 13.4512 31.7404 13.5101C31.546 13.5691 31.3548 13.6313 31.1635 13.695C30.9819 13.754 30.8002 13.8145 30.6217 13.8783C30.4209 13.9484 30.2217 14.0233 30.0241 14.0982C29.86 14.1604 29.6959 14.2241 29.5333 14.2895C29.3246 14.3739 29.1158 14.46 28.9102 14.5492C28.7652 14.6114 28.6202 14.6751 28.4768 14.7405C28.2569 14.8393 28.0402 14.9397 27.8234 15.0449C27.7007 15.1038 27.578 15.166 27.4569 15.2266C27.2243 15.3429 26.9932 15.4624 26.7637 15.5852C26.6697 15.6362 26.5773 15.6887 26.4833 15.7397C26.2315 15.88 25.9797 16.0218 25.7327 16.1685C25.6785 16.2019 25.6243 16.2354 25.5686 16.2689C18.1394 20.7695 13.0767 28.676 12.409 37.6518C12.4217 37.6534 12.4361 37.6534 12.4488 37.655C12.3309 38.9873 12.2927 40.3388 12.3931 41.7094C12.4281 42.1764 12.4743 42.6401 12.5317 43.1007C14.0041 54.9214 22.9392 64.2048 34.1929 66.5173C35.6143 66.8089 37.0724 66.9874 38.556 67.0496C38.556 67.0496 38.556 67.0496 38.556 67.0512C38.8221 67.0623 39.0915 67.0655 39.3592 67.0703C39.458 67.0703 39.5568 67.0783 39.6556 67.0783C39.6588 67.0783 39.6635 67.0783 39.6667 67.0783C39.6731 67.0783 39.6795 67.0783 39.6843 67.0783C40.3551 67.0783 41.0324 67.0527 41.7113 67.0033C45.4593 66.7276 48.9763 65.7045 52.1283 64.0932C52.1267 64.0868 52.1235 64.0789 52.1219 64.0725C53.6119 63.3107 55.0222 62.4214 56.3353 61.4142C56.8962 62.0644 57.7153 62.4851 58.6428 62.4851C60.3319 62.4851 61.7008 61.1161 61.7008 59.4268C61.7008 58.5439 61.3215 57.755 60.7239 57.1972C61.6402 56.0975 62.4673 54.9229 63.2035 53.691C63.2067 53.691 63.2099 53.691 63.2131 53.6926C63.2656 53.6049 63.3087 53.5125 63.3597 53.4233C63.6194 52.977 63.8696 52.5244 64.1055 52.0622C64.1405 51.9937 64.1788 51.9283 64.2122 51.8582C64.4783 51.3259 64.7206 50.7825 64.9516 50.2326C65.0042 50.1083 65.0552 49.9824 65.1062 49.8565C65.3325 49.2939 65.5444 48.725 65.7341 48.1464C65.7484 48.1002 65.7612 48.054 65.7771 48.0078C65.954 47.4548 66.1117 46.8922 66.2536 46.3248C66.2807 46.2149 66.3109 46.1049 66.3364 45.9949C66.4783 45.3989 66.601 44.798 66.7014 44.1892C66.7189 44.0841 66.7332 43.9789 66.7492 43.8737C66.8368 43.3111 66.9069 42.7453 66.9579 42.1732C66.9659 42.0871 66.977 42.0027 66.9834 41.9166C67.0328 41.2982 67.0583 40.6735 67.0663 40.0456C67.0679 39.9069 67.0663 39.7683 67.0663 39.6296C67.0647 38.9873 67.0472 38.3435 66.9993 37.6948L67.0057 37.6932ZM13.5691 42.97C13.5149 42.527 13.4687 42.0823 13.4352 41.6313C13.3508 40.4902 13.3556 39.3156 13.4496 38.0837C15.6089 40.8647 18.6462 42.8633 22.0946 43.7095L22.6571 43.9008C23.3312 44.1303 24.0037 44.3582 24.6347 44.602C27.6561 45.9168 30.1915 48.0875 31.9539 50.8606C32.1404 51.1681 32.3268 51.4901 32.5117 51.8311L32.8144 52.3826C36.6326 59.3248 39.9695 63.7793 42.9 65.8208C42.4523 65.8798 42.0108 65.926 41.5726 65.9579C39.2572 66.13 36.7824 65.9786 34.4 65.4893C23.3344 63.2151 14.9619 54.1643 13.5675 42.9684L13.5691 42.97ZM44.9255 62.4836C44.9255 61.3074 45.88 60.3528 47.056 60.3528C48.2321 60.3528 49.1866 61.3074 49.1866 62.4836C49.1866 63.6597 48.2321 64.6144 47.056 64.6144C45.88 64.6144 44.9255 63.6597 44.9255 62.4836ZM56.0102 44.9064C55.2485 49.4007 53.7235 52.1786 52.2733 53.8536C49.2711 56.5262 45.4035 58.2714 41.0945 58.5885C39.9743 58.6698 38.8652 58.6379 37.7704 58.5279C36.5529 56.7478 35.2127 54.5675 33.7339 51.8773C33.6335 51.6941 33.5347 51.5188 33.4327 51.3323C33.2399 50.9769 33.0455 50.6422 32.8511 50.3187C30.9866 47.3846 28.2728 45.0435 25.0538 43.6426C24.3033 43.3509 23.5495 43.0975 22.7958 42.8425C22.6555 42.7947 22.5137 42.7469 22.3735 42.6991C21.8922 42.5812 21.4237 42.433 20.9616 42.2688C20.909 41.8768 20.8469 41.4879 20.8166 41.0895C20.756 40.2735 20.756 39.467 20.7991 38.6702C23.2563 38.4232 25.4682 37.2263 26.9677 35.4302C27.8139 34.4165 28.437 33.2165 28.7844 31.9033C28.8274 31.7694 28.8752 31.6371 28.9118 31.5C29.3485 29.9159 29.9062 28.4449 30.6297 27.2544C31.0727 26.381 31.7436 25.6447 32.5674 25.122C32.6137 25.0917 32.6631 25.0646 32.7109 25.0343C32.7969 24.9833 32.8846 24.9323 32.9738 24.8861C33.0583 24.8415 33.1459 24.8 33.2336 24.7618C33.9124 24.4558 34.663 24.2805 35.4566 24.2805C36.6071 24.2805 37.6716 24.6423 38.5496 25.2543C38.8923 25.4694 39.1807 25.7292 39.442 26.04C39.8675 26.5037 40.1878 27.0488 40.4587 27.6273C40.6404 28.0146 40.8651 28.4672 41.1392 28.982C41.2969 29.3103 41.469 29.6322 41.6507 29.9446C42.7933 31.9112 44.3693 33.6149 46.2688 34.8644C47.2234 35.4907 48.2496 36.0198 49.3412 36.4167C53.1705 38.1092 56.8819 39.7587 56.0086 44.9064H56.0102ZM49.7029 35.4349C49.0448 35.1943 48.393 34.8947 47.7636 34.5456C45.7812 33.4428 44.0856 31.8443 42.865 29.9239C42.567 29.4553 42.3041 28.9851 42.065 28.4895C41.8021 27.9939 41.5838 27.5572 41.4085 27.1827C41.0499 26.4161 40.6707 25.828 40.2436 25.3626C39.8994 24.9562 39.5265 24.6295 39.1504 24.3968C38.0604 23.6366 36.7856 23.2334 35.4582 23.2334C34.5403 23.2334 33.6479 23.4263 32.8144 23.8024C32.7045 23.8502 32.5977 23.9028 32.4925 23.957C32.3874 24.0111 32.2838 24.0701 32.1165 24.1705L32.0081 24.2375C31.0233 24.8622 30.2233 25.7403 29.7373 26.7093C29.0218 27.8855 28.4051 29.4043 27.9047 31.2195C27.8856 31.2913 27.8617 31.3614 27.8378 31.4299L27.7724 31.6323C27.4633 32.7973 26.9215 33.8476 26.163 34.756C25.0682 36.0676 22.7846 37.1546 20.8851 37.5976C20.9297 37.1896 21.003 36.7896 21.0747 36.3896C21.1496 35.9672 21.2421 35.5513 21.3456 35.1385C21.3727 35.0317 21.3966 34.9249 21.4253 34.8198C21.5321 34.4197 21.6548 34.0277 21.7871 33.6388C21.8253 33.5241 21.8636 33.4093 21.905 33.2946C22.0404 32.92 22.1886 32.5519 22.3464 32.1885C22.4006 32.0658 22.4532 31.9415 22.5089 31.8204C22.6683 31.4729 22.8388 31.1319 23.0189 30.794C23.089 30.6633 23.1607 30.5327 23.2324 30.4036C23.4125 30.0832 23.6037 29.7693 23.8013 29.4601C23.889 29.323 23.9798 29.1876 24.0722 29.0521C24.2698 28.7604 24.4754 28.4752 24.6889 28.1947C24.7973 28.0528 24.9104 27.9126 25.0236 27.7739C25.2355 27.5126 25.4522 27.2544 25.6785 27.0042C25.8092 26.8591 25.9446 26.7189 26.0801 26.5786C26.3032 26.3459 26.5295 26.1165 26.7637 25.8949C26.9183 25.7499 27.0777 25.6112 27.237 25.471C27.4681 25.2686 27.6991 25.0662 27.9398 24.8734C28.1182 24.7299 28.3047 24.596 28.4895 24.4606C28.7254 24.2869 28.9596 24.1116 29.205 23.9474C29.409 23.8103 29.6226 23.6844 29.8329 23.5538C30.0703 23.4071 30.3062 23.2589 30.5516 23.1234C30.7827 22.9959 31.0217 22.8796 31.2591 22.7617C31.4966 22.6421 31.7308 22.5194 31.9746 22.4095C32.2344 22.2931 32.5005 22.1927 32.7666 22.0875C33.0009 21.9951 33.2304 21.8963 33.4694 21.8134C33.7626 21.7114 34.0638 21.6269 34.3634 21.5393C34.5849 21.4739 34.8016 21.399 35.0279 21.3433C35.3753 21.254 35.7322 21.1887 36.0876 21.1185C36.2741 21.0819 36.4573 21.0341 36.6453 21.0038C37.1935 20.9146 37.7513 20.846 38.317 20.8046C38.7871 20.7695 39.2556 20.7536 39.7193 20.7536C49.5372 20.7536 57.8635 28.3604 58.5949 38.3052C58.6236 38.7052 58.6396 39.1037 58.6443 39.4989C58.6443 39.6232 58.6396 39.7459 58.6396 39.8687C58.6364 40.1412 58.6332 40.4137 58.6189 40.6831C58.6125 40.8217 58.5981 40.9604 58.5886 41.0974C58.5695 41.3508 58.5487 41.6058 58.5201 41.856C58.5041 41.9947 58.4834 42.1317 58.4643 42.2704C58.4292 42.5206 58.3926 42.7708 58.3479 43.0194C58.324 43.1517 58.2985 43.2824 58.2715 43.4131C58.2205 43.6665 58.1647 43.9183 58.1041 44.1685C58.0739 44.2896 58.0436 44.4124 58.0117 44.5319C57.9432 44.7917 57.8683 45.0483 57.7886 45.3032C57.7551 45.41 57.7233 45.5184 57.6866 45.6252C57.5958 45.8961 57.4986 46.1655 57.3966 46.4316C57.3631 46.5193 57.3313 46.6085 57.2962 46.6946C57.1783 46.9878 57.0524 47.2779 56.9201 47.5647C56.8994 47.6094 56.8803 47.6556 56.8596 47.7018C57.2006 46.1575 57.3137 43.5183 57.3137 43.5167C57.3265 38.8088 53.2677 37.0032 49.7045 35.4302L49.7029 35.4349ZM58.6443 61.4365C57.5352 61.4365 56.6317 60.5328 56.6317 59.4252C56.6317 58.3176 57.5352 57.4139 58.6443 57.4139C59.7535 57.4139 60.6554 58.3176 60.6554 59.4252C60.6554 60.5328 59.7535 61.4365 58.6443 61.4365Z" fill="white"/>
</svg>
