<svg width="51" height="50" viewBox="0 0 51 50" fill="none" xmlns="http://www.w3.org/2000/svg">
<path d="M6.45269 0C2.89469 0 0 2.88059 0 6.42127C0 9.96194 2.89469 12.8425 6.45269 12.8425C10.0107 12.8425 12.9054 9.96194 12.9054 6.42127C12.9054 2.88059 10.0095 0 6.45269 0ZM6.45269 9.40533C4.79859 9.40533 3.45403 8.06732 3.45403 6.42127C3.45403 4.77521 4.79859 3.4372 6.45269 3.4372C8.1068 3.4372 9.45136 4.7764 9.45136 6.42127C9.45136 8.06613 8.10561 9.40533 6.45269 9.40533Z" fill="url(#paint0_linear_2036_1667)"/>
<path d="M50.2545 28.0709C49.4238 16.8364 39.5553 8.36228 28.273 9.19363C16.9835 10.0202 8.47389 19.8335 9.30453 31.068C10.0981 41.7959 19.1228 50 29.7646 50C30.2677 50 30.7757 49.981 31.2848 49.9441C42.5743 49.1175 51.0839 39.3042 50.2533 28.0697L50.2545 28.0709ZM20.4996 40.27C17.6277 37.8033 15.8923 34.3708 15.6138 30.6066C15.0389 22.833 20.9263 16.0442 28.7367 15.4722C29.0893 15.446 29.4407 15.4341 29.7885 15.4341C37.1519 15.4341 43.3966 21.1109 43.9452 28.5324C44.5201 36.3059 38.6327 43.0935 30.8223 43.6656C27.0408 43.9391 23.3728 42.7367 20.5008 40.27H20.4996Z" fill="url(#paint1_linear_2036_1667)"/>
<defs>
<linearGradient id="paint0_linear_2036_1667" x1="0.8653" y1="9.6313" x2="12.0115" y2="3.1641" gradientUnits="userSpaceOnUse">
<stop stop-color="#FFD102"/>
<stop offset="0.51" stop-color="#FFCD01"/>
<stop offset="1" stop-color="#EB673A"/>
</linearGradient>
<linearGradient id="paint1_linear_2036_1667" x1="9.24836" y1="29.5683" x2="50.3094" y2="29.5683" gradientUnits="userSpaceOnUse">
<stop stop-color="#9FC646"/>
<stop offset="0.11" stop-color="#95C147"/>
<stop offset="0.28" stop-color="#7BB44A"/>
<stop offset="0.51" stop-color="#51A050"/>
<stop offset="0.72" stop-color="#248A56"/>
<stop offset="1" stop-color="#1B804D"/>
</linearGradient>
</defs>
</svg>
