<svg width="40" height="40" viewBox="0 0 40 40" fill="none" xmlns="http://www.w3.org/2000/svg">
<circle cx="20" cy="20" r="20" fill="url(#paint0_linear_39_1204)"/>
<path d="M29.3057 11.6304C26.955 9.2907 23.8277 8.00134 20.4994 8C17.1786 8 14.0464 9.28822 11.6801 11.6274C9.3097 13.9706 8.00305 17.0845 8 20.3842V20.3903C8.00038 22.3875 8.5256 24.4022 9.52257 26.2413L8.03417 33L14.8773 31.4449C16.6104 32.3176 18.5442 32.7776 20.4947 32.7784H20.4996C23.8199 32.7784 26.9521 31.49 29.3187 29.1506C31.6913 26.8055 32.9985 23.6956 33 20.3938C33.001 17.1152 31.6892 14.003 29.3057 11.6304ZM20.4994 30.8272H20.495C18.7437 30.8264 17.0085 30.3871 15.4771 29.5565L15.1535 29.381L10.6032 30.415L11.5916 25.9274L11.401 25.5991C10.4537 23.967 9.9531 22.1653 9.9531 20.3882C9.95672 14.6362 14.6873 9.95122 20.499 9.95122C23.3067 9.95236 25.9448 11.0397 27.9273 13.0127C29.9398 15.0162 31.0477 17.6373 31.0467 20.3932C31.0444 26.1465 26.3129 30.8272 20.4994 30.8272Z" fill="white"/>
<path d="M17.0982 14.9269H16.5503C16.3596 14.9269 16.0499 14.9983 15.7879 15.283C15.5258 15.568 14.7871 16.2567 14.7871 17.6575C14.7871 19.0582 15.8118 20.4117 15.9546 20.6019C16.0976 20.7918 17.9325 23.7581 20.8387 24.8993C23.254 25.8476 23.7456 25.659 24.2697 25.6115C24.7939 25.5642 25.9614 24.923 26.1997 24.2582C26.4379 23.5935 26.4379 23.0236 26.3665 22.9046C26.2949 22.786 26.1042 22.7148 25.8184 22.5725C25.5324 22.43 24.1311 21.7297 23.8689 21.6345C23.6068 21.5397 23.4163 21.4922 23.2256 21.7774C23.0348 22.0619 22.4733 22.7203 22.3065 22.9103C22.1398 23.1005 21.9729 23.1243 21.6869 22.9818C21.4009 22.839 20.4895 22.533 19.3973 21.5633C18.5471 20.8086 17.9572 19.8462 17.7903 19.5612C17.6236 19.2764 17.7725 19.1223 17.9159 18.9802C18.0444 18.8528 18.218 18.6785 18.3609 18.5124C18.5038 18.346 18.5444 18.2274 18.6399 18.0374C18.7352 17.8475 18.6874 17.6811 18.616 17.5388C18.5444 17.3964 17.9957 15.9885 17.7414 15.4255H17.7416C17.5274 14.9513 17.3019 14.9353 17.0982 14.9269Z" fill="white"/>
<defs>
<linearGradient id="paint0_linear_39_1204" x1="3.1385e-07" y1="38.7942" x2="42.8833" y2="36.9376" gradientUnits="userSpaceOnUse">
<stop stop-color="#1B804D"/>
<stop offset="1" stop-color="#89BB48"/>
</linearGradient>
</defs>
</svg>
